<svg width="491" height="198" viewBox="0 0 491 198" fill="none" xmlns="http://www.w3.org/2000/svg">
<path d="M213.389 159.949C197.411 185.732 164.878 197.999 131.983 197.999H0C137.395 182.599 233.08 120.999 245.348 35.1992C257.615 120.999 353.301 182.599 490.696 197.999H358.713C325.817 197.999 293.285 185.732 277.307 159.949C260.013 132.043 248.995 100.466 245.348 65.9992C241.701 100.466 230.683 132.043 213.389 159.949Z" fill="#211A4C"/>
<path d="M137.911 150.838C130.203 154.729 122.096 158.383 113.607 161.787C108.785 146.851 107.01 131.181 108.426 115.57C110.298 94.9189 117.694 75.0094 129.959 57.6061C142.225 40.2028 158.981 25.842 178.743 15.7963C198.506 5.75071 220.664 0.330042 243.257 0.0146061C265.849 -0.300874 288.177 4.4986 308.263 13.9879C328.35 23.4771 345.575 37.363 358.412 54.4161C371.25 71.4692 379.303 91.1627 381.86 111.752C383.951 128.593 382.312 145.609 377.089 161.787C368.6 158.383 360.493 154.728 352.785 150.837C356.035 139.009 356.945 126.704 355.432 114.513C353.37 97.9092 346.875 82.0283 336.523 68.277C326.171 54.5256 312.281 43.3277 296.083 35.6756C279.885 28.0234 261.879 24.1532 243.661 24.4076C225.443 24.6619 207.574 29.0332 191.638 37.1338C175.702 45.2346 162.19 56.815 152.299 70.8492C142.408 84.8834 136.443 100.938 134.934 117.592C133.919 128.785 134.938 140.018 137.911 150.838Z" fill="#211A4C"/>
<rect x="162" y="103" width="46.8893" height="94.5228" rx="10" fill="#211A4C" fill-opacity="0.75"/>
<rect x="222" y="61" width="46" height="137" rx="10" fill="#211A4C" fill-opacity="0.75"/>
<rect x="281.11" y="116.396" width="46.8893" height="81.1259" rx="10" fill="#211A4C" fill-opacity="0.75"/>
</svg>
